<?xml version="1.0" encoding="utf-8"?>
<!-- Generator: Adobe Illustrator 24.2.1, SVG Export Plug-In . SVG Version: 6.00 Build 0)  -->
<svg version="1.1" id="Layer_1" xmlns="http://www.w3.org/2000/svg" xmlns:xlink="http://www.w3.org/1999/xlink" x="0px" y="0px"
	 viewBox="0 0 850.4 283.5"   xml:space="preserve">
<path d="M5.5,145.7c1.1-9.5,5.3-17.2,12.6-23.2c7-5.7,15.1-8.6,24.3-8.6c3,0,6.2,0.4,9.4,1.2c6.5,1.6,12.1,4.8,16.7,9.6
	c2.4,2.5,4.5,5.3,6.3,8.5H67c-4-5.4-9.2-9.1-15.4-10.9c-3-0.9-5.9-1.3-8.8-1.3c-6.1,0-11.6,1.6-16.6,4.8s-8.7,7.5-11.1,13
	c-1.7,3.8-2.5,7.8-2.5,12.2c0,8.4,3.1,15.5,9.3,21.3c2.9,2.8,6.2,4.9,9.8,6.3c3.6,1.5,7.2,2.2,11,2.2c4.5,0,9-1.1,13.6-3.4
	c4.4-2.2,8.1-5.4,11.1-9.6h7.9c-3.8,6.6-8.6,11.5-14.5,14.9c-5.7,3.2-11.7,4.8-18.1,4.8c-9.9,0-18.5-3.4-25.8-10.2
	c-7.7-7.1-11.5-16-11.5-26.8C5.2,149,5.3,147.4,5.5,145.7z"/>
<path d="M125,95.9h7v12.2h-7V95.9z M132.1,186.3h-7v-71.2h7V186.3z"/>
<path d="M185.3,186.3v-71.2h7v31.2h37.1v-31.2h6.9v71.2h-6.9v-33.5h-37.1v33.5H185.3z"/>
<path d="M406.3,186.3h-7v-71.2h9.6l39.8,59v-59h7.1v71.2h-7.1l-42.4-62.6V186.3z"/>
<path d="M557.7,186.3v-71h7v40.9l33-40.9h9l-28,34.6l27.8,36.3h-8.8L574,155.6l-9.3,11.4v19.2h-7V186.3z"/>
<path d="M650.3,150c0-6.2,1.7-12.1,5.2-17.7c3.3-5.4,7.7-9.8,13.1-13.1c5.7-3.5,12-5.3,18.9-5.3c10.6,0,19.5,3.6,26.8,10.8
	c7.4,7.3,11.1,16.2,11.1,26.9c0,6.6-1.9,12.8-5.7,18.6c-3.6,5.5-8.5,9.9-14.5,13c-5.9,3-12,4.6-18.3,4.6c-4.1,0-8.5-1-13.3-3
	c-7.2-3-12.9-7.6-17.1-13.8C652.4,164.7,650.3,157.7,650.3,150z M657.4,149.6c0,5.2,1,9.8,3,14c3.4,7.4,9.1,12.4,17.1,15.1
	c3.5,1.2,6.9,1.8,10,1.8c7.3,0,14-2.3,19.9-6.9c3-2.3,5.5-5.4,7.5-9.2c2.3-4.3,3.4-8.7,3.4-13.1c0-9-3.1-16.5-9.4-22.4
	c-6-5.6-13.1-8.4-21.1-8.4c-8.3,0-15.4,3-21.4,9.1C660.4,135.8,657.4,142.4,657.4,149.6z"/>
<path d="M772.5,145.7c1.1-9.5,5.3-17.2,12.6-23.2c7-5.7,15.1-8.6,24.3-8.6c3,0,6.2,0.4,9.4,1.2c6.5,1.6,12.1,4.8,16.7,9.6
	c2.4,2.5,4.5,5.3,6.3,8.5H834c-4-5.4-9.2-9.1-15.5-10.9c-3-0.9-5.9-1.3-8.8-1.3c-6.1,0-11.6,1.6-16.6,4.8s-8.7,7.5-11.1,13
	c-1.7,3.8-2.5,7.8-2.5,12.2c0,8.4,3.1,15.5,9.3,21.3c2.9,2.8,6.2,4.9,9.8,6.3s7.2,2.2,11,2.2c4.5,0,9-1.1,13.6-3.4
	c4.4-2.2,8.1-5.4,11.1-9.6h7.9c-3.8,6.6-8.6,11.5-14.5,14.9c-5.7,3.2-11.7,4.8-18.1,4.8c-9.9,0-18.5-3.4-25.8-10.2
	c-7.7-7.1-11.5-16-11.5-26.8C772.2,149,772.3,147.4,772.5,145.7z"/>
<polygon points="321.9,115.1 314,115.1 283.4,186.3 291.1,186.3 300.5,164.5 304.1,155.9 304.1,155.9 317.9,123.4 329.8,151.4 
	329.8,151.4 330,152 331.7,155.9 331.7,155.9 336.7,168 336.7,168 344.8,186.3 352.4,186.3 "/>
</svg>
